<mxfile host="app.diagrams.net" modified="2023-10-15T15:39:14.880Z" agent="Mozilla/5.0 (Windows NT 10.0; Win64; x64) AppleWebKit/537.36 (KHTML, like Gecko) Chrome/117.0.0.0 Safari/537.36" etag="P7zdz5f9AJJDbHKLjaKO" version="22.0.4" type="github">
  <diagram name="Page-1" id="-Vjg_1R-a2QvGgSYmL_F">
    <mxGraphModel dx="1805" dy="1524" grid="1" gridSize="10" guides="1" tooltips="1" connect="1" arrows="1" fold="1" page="1" pageScale="1" pageWidth="827" pageHeight="1169" math="0" shadow="0">
      <root>
        <mxCell id="0" />
        <mxCell id="1" parent="0" />
        <mxCell id="pfPLHr4nRzfbwyNxgIdt-8" style="edgeStyle=orthogonalEdgeStyle;rounded=0;orthogonalLoop=1;jettySize=auto;html=1;" edge="1" parent="1" source="pfPLHr4nRzfbwyNxgIdt-1" target="pfPLHr4nRzfbwyNxgIdt-2">
          <mxGeometry relative="1" as="geometry" />
        </mxCell>
        <mxCell id="pfPLHr4nRzfbwyNxgIdt-1" value="start" style="ellipse;whiteSpace=wrap;html=1;" vertex="1" parent="1">
          <mxGeometry x="354" y="70" width="120" height="80" as="geometry" />
        </mxCell>
        <mxCell id="pfPLHr4nRzfbwyNxgIdt-9" style="edgeStyle=orthogonalEdgeStyle;rounded=0;orthogonalLoop=1;jettySize=auto;html=1;entryX=0.5;entryY=0;entryDx=0;entryDy=0;" edge="1" parent="1" source="pfPLHr4nRzfbwyNxgIdt-2" target="pfPLHr4nRzfbwyNxgIdt-3">
          <mxGeometry relative="1" as="geometry" />
        </mxCell>
        <mxCell id="pfPLHr4nRzfbwyNxgIdt-2" value="" style="rounded=0;whiteSpace=wrap;html=1;" vertex="1" parent="1">
          <mxGeometry x="354" y="210" width="120" height="60" as="geometry" />
        </mxCell>
        <mxCell id="pfPLHr4nRzfbwyNxgIdt-3" value="" style="rhombus;whiteSpace=wrap;html=1;" vertex="1" parent="1">
          <mxGeometry x="374" y="330" width="80" height="80" as="geometry" />
        </mxCell>
        <mxCell id="pfPLHr4nRzfbwyNxgIdt-4" value="" style="rounded=0;whiteSpace=wrap;html=1;" vertex="1" parent="1">
          <mxGeometry x="60" y="340" width="120" height="60" as="geometry" />
        </mxCell>
        <mxCell id="pfPLHr4nRzfbwyNxgIdt-5" value="" style="rounded=0;whiteSpace=wrap;html=1;" vertex="1" parent="1">
          <mxGeometry x="650" y="340" width="120" height="60" as="geometry" />
        </mxCell>
        <mxCell id="pfPLHr4nRzfbwyNxgIdt-6" value="" style="shape=parallelogram;perimeter=parallelogramPerimeter;whiteSpace=wrap;html=1;fixedSize=1;" vertex="1" parent="1">
          <mxGeometry x="55" y="490" width="130" height="70" as="geometry" />
        </mxCell>
        <mxCell id="pfPLHr4nRzfbwyNxgIdt-7" value="" style="rhombus;whiteSpace=wrap;html=1;" vertex="1" parent="1">
          <mxGeometry x="65" y="660" width="110" height="110" as="geometry" />
        </mxCell>
      </root>
    </mxGraphModel>
  </diagram>
</mxfile>
